<svg id="圖層_1" data-name="圖層 1" xmlns="http://www.w3.org/2000/svg" viewBox="0 0 300 650"><defs><style>.cls-1{fill-rule:evenodd;}</style></defs><path class="cls-1" d="M88.49,622.65c4.4-.87,8.11-4.38,11.71-7,4.58-3.37,8.93-7,13.39-10.58a197.25,197.25,0,0,0,23.24-21.92,130.37,130.37,0,0,0,29.93-56.5c2.47-10.44,5.53-22.67,4.13-33.45-.49-3.75-1.24-4.44-4.91-4.86-1.66-.2-5.87-.67-7.36,0-3.88,1.69-6,8.89-7.11,12.51-3.4,10.68-5.39,21.74-8.46,32.51-3,10.56-7.84,21.27-12.63,31.14-10.65,22-25.46,40.34-41.93,58.19m87.34-121.26c-2.63,29.9-10.93,58.4-29.55,82.49a181.79,181.79,0,0,1-30.54,30.45c-11.65,9.35-23.55,18.15-36.76,25.11-3.52,1.86-7,3.71-10.6,5.48-2,1-7,4.59-9.24,4-1.82-.46-2.3-1.87-2.58-3.71-.64-4.12,2-6.18,4.74-8.82,10.88-10.63,21.79-21.3,32-32.61a201.06,201.06,0,0,0,43.55-77.95c2.58-8.88,4.89-17.87,7.67-26.69,1.7-5.38,4.11-14.94,9.75-17.62,3-1.44,6.56,0,9.74-.9,3-.81,5-2.46,7.51.3,4.46,4.85,4.66,14.37,4.35,20.45"/><path class="cls-1" d="M223,450.41c-8.51-.22-21.47-.24-21,11.38.24,5.75,3.36,10,5.92,14.9A49.75,49.75,0,0,1,213.39,493c3.19,23.47-5.38,46.4-13.13,68.09,16.65-13.44,28.67-32.14,35-52.63a91.19,91.19,0,0,0,3.26-33.07c-.5-5.18-2.41-9.82-4.71-14.44-1.15-2.31-2.31-5-4.15-6.84s-4.4-2.5-6.67-3.7M193.29,574.53c-5.5-9,3.16-22.35,6-31.17,3.38-10.54,6.51-21.51,7.95-32.5,1.52-11.52-.44-20.47-5.78-30.64-4.77-9.1-7.6-21.21-2.3-30.83,2.14-3.87,5.3-4.34,9-5.89,4.6-1.89,5.87-5.1,11.52-4.59,10.08.9,14.74,10.46,18.49,18.61,8.75,19,6.37,43.5-1.09,62.57-4.29,11-9.18,22.36-16.47,31.7a91.55,91.55,0,0,1-12.13,12.38c-4.72,4.13-8.94,9.11-15.23,10.36"/><path class="cls-1" d="M189.84,60.52,132.63,34.66q-1.17,13-2.35,25.93c-.21,2.34-1.08,5.52-.71,7.83s-.44,2.2,2.77,1.85c4.1-.45,8.22-1.47,12.29-2.19,7.3-1.3,15.07-1.68,22.22-3.59,3.65-1,7.15-1.11,10.85-1.7,4.07-.65,8-1.85,12.14-2.27M125.33,77.23c0-9.73,1.08-19.34,2-29,.81-8.72,1.12-17,4-25.34,2.66,4.83,10,6.76,14.58,9.24,6.28,3.43,13,5.95,19.39,9.07s12.39,6.58,18.71,9.63c3.2,1.55,6.46,3,9.66,4.56,2,1,6.75,2.55,8,4.37,3.78,5.51-9.16,6-11.66,6.53-7.49,1.46-15.07,2.28-22.54,3.79-7,1.4-14,2.7-20.95,4s-14.06,3.21-21.11,3.21"/><path id="react-path-227" class="cls-1" d="M166.47,291c14.33,10.18,30.77,17.14,45.75,26.31,3.75,2.29,15.43,7.06,15.31,11.31-.06,2.49-3.57,5.61-5.11,7.34-2.63,2.95-5.11,5.94-7.54,9.07-11.12,14.31-21.6,28.76-33.65,42.36-1.81,2-7.28,11.81-9,7-.8-2.2-.14-4.67-2.22-6.72-1.08-1.06-5.22-1.64-4-3.91l2.41,1.09c-.62-1.81-.58-3.79-1.52-5.5-.58-1.07-1.72-1.57-2.11-2.77-.55-1.65.38-3.57.22-5.28s-1-3.31-1.56-4.91c-3.12-9.51-4.24-19.09-5.83-28.9s-4-19.11-5-28.93c-1-10.36-2.27-20.71-3.94-31,3,.41,5.27,3.65,7.38,5.48,3.31,2.88,6.9,5.45,10.48,8M155.23,391.32a5.69,5.69,0,0,1-1.6-2c7-3.48,2.78,2.46,1.6,2M151,383.9c-3.06.84-5.26,1-7.62-.25-.23-.12,0-1-.37-1.23s-.9,0-1.2-.11c-1-.53-2.83.62-3-1.38,3.91-1.2,7.75-3.4,11.88-3.78,5.73-.51,5.46,5.32.31,6.75m-13.42-11.54c-4.18,1-7.62,3.26-12.06,2.66-4.16-.56-7.78-2.72-11.07-5.21,8.22-2.33,16.84-2.75,25.06-5,2.68-.73,6.19-2.67,9.07-1.89,3.21.87,3.41,3.87,4.37,6.6-5.13.92-10.29,1.65-15.37,2.84m-26.13-11.59c-4,1-8.12,3.06-11.47-.56-.54-.58-1,0-1-1.8s1.79-3.12,3.27-3.79c3.48-1.57,8.36-.55,12.06-.78,5.9-.37,11.9-1.6,17.74-2.54,4-.65,8.21-2.1,12.34-1.82,3.19.22,7,2.94,2.39,4.92-4.24,1.81-10.58,1.53-15.16,2.31-6.78,1.16-13.53,2.46-20.22,4.06m-3.92-18.88.78.79a7.67,7.67,0,0,1,2-1.32c2-.18,4.08,0,6.12-.16a104,104,0,0,0,14-2c3.76-.73,7.58-2,11.45-1.68,3.35.27,3.7,1,3.92,4.19-8.55,0-17.35-.18-25.75,1.63-5.47,1.17-11.49,4.68-14.23-1.64l1.71.17m5.34-13.68c2.12,1.61,7.9-1.07,10.44-1.34a54.15,54.15,0,0,0,8-1.28c2.37-.61,10.21-3.66,12-.74,2.79,4.46-8.49,5.28-10.28,5.5-7.51.93-15.29,1.75-22.59,3.72.79-2,1.59-3.91,2.38-5.86m10.3-15.16c.54,2.06,17.51-5.54,17.82,0,.24,4.24-16.79,6.35-19.85,6,.72-2,2.63-3.7,2-6m5.69-13c.36-4.16.92-4.13,4.26-4.53,2.54-.29,6-1.79,5.38,2.75-.57,3.88-10,6-9.64,1.78m6.07-14.31c.8-2.24,2.61.77,2.65,1.91.1,3-2.2,2.36-4.4,2.36.61-1.41,1.2-2.84,1.75-4.27M162.81,269c-.45-.54-3-.75-3.69-1-1.77-.65-1.52-2-3.78-.67-.11-.12.1-1.14,0-1.19a17.58,17.58,0,0,1-2.16-.95,27,27,0,0,1-3.51-2.57,32.69,32.69,0,0,0-3.81-3.45,5.21,5.21,0,0,0-1.77-1c-1.83-.28-1.31,1-2.91,1.25-1,.15-1.7-1-3-.5-1.11.43-1.76,2-2.25,2.92-1.8,3.38-3.2,7-5,10.43-9,17.48-19.29,34.29-28,51.92-4.21,8.5-8.6,17.05-11.57,26.08-2.13,6.51-7,16-2.81,22.53,3,4.74,9.07,6.78,13.89,9.06,7.26,3.44,14,7.94,21.28,11.28,8.75,4,17.25,8.13,25.78,12.57,3.63,1.9,6.91,4.63,10.54,6.42,2.22,1.1,5.64-.78,6.36,1.74,2.78-3.37,7.28-1.12,10.49-3.49,1.9-1.4,3.28-4.14,4.85-5.86,2.37-2.57,4.94-5,7.35-7.49,9.58-10.05,18.43-20.51,27.15-31.3,8.32-10.3,18-20,25.08-31.31a15.28,15.28,0,0,0,1.46-14.12c-1.35-3.61-4.59-9.06-9.22-6.67,1.76-2.91-5-6-7.07-6.6,0,0-.44,2.24-1,2.18.2,0-1.72-5-2.57-5.6a84.13,84.13,0,0,0-8.31-5.69c-2.51-1.43-5.17-2.14-7.6-3.75-2.95-1.94-5.66-4.25-8.63-6.19a58.1,58.1,0,0,0-9.21-5.35c-2.74-1.11-5.2-1.33-7.67-3.16a45.68,45.68,0,0,0-9.23-5.34c-3-1.34-7.27-2.52-9.45-5.15"/><path id="react-path-229" class="cls-1" d="M66.83,487.3c-.65,1.55-6.73,1-6.87-.8-.19-2.74,8-1.9,6.87.8m6.45-1c3.45.28,9.11,2.62,12.43,1.21,5.07-2.16-.25-5.47-3-6.46s-6.89-.47-8.31-3.37c-1.07-2.17,1.57-8.24-1.71-7.27-3.44,1-2.44,9.73-7.84,6.79-2.57-1.4-1.52-9.92-5.84-5.56-1.18,1.19-1.28,3.37-2.85,4.26s-3.59,0-5.28,0c-4.46.21-5.88,4.39-1.36,6,1.67.61,8,1.36,4.16,4.1-2.41,1.72-7.76-1.9-9.82,1.1-2.84,4.12,4.77,4.21,6.81,5.44,3.46,2.09.6,7,.88,10.43.42,5.31,3.5,4.2,4.62-.29.95-3.81-.23-9.29,5.51-7.77,9.35,2.46-5.19,14.33,1.65,17.36,4.37,1.94,5-8.53,5.32-10.33,1.26-6.65,5-5.1,10.65-4.89,6.62.23,8.21-4.66,1.21-6.06-2.23-.45-5.31.12-7.25-1.3-1.14-.84-2.72-3.69,0-3.47"/><path id="react-path-232" class="cls-1" d="M243.09,219.74c-2.72-1-6.09-2.94-9.12-2.28-3.21.71-4.51,3.93-6.85,5.87-6.36,5.26-10.06-2.59-13.55-6.89-3.3-4.06-7.33-5.05-12-2.55-1.85,1-9.67,5.55-8.3,8.47,1,2.11,4.84.22,6.15-.24,2.86-1,5.52-1.87,8.44-.42,5.49,2.72,6.91,10.18,13.55,11.35,6.86,1.2,7.08-5.33,12-7.79,3.28-1.65,5.57,1.27,8.74.69s4.41-4.95,1-6.21"/><path id="react-path-233" class="cls-1" d="M187.69,246.06c2.43.52,4-4.18,5.53-5.38,2.52-2,6.89-2.37,9.46-.38,5,3.89,3.28,12.28,10.42,14.47,6.37,2,9.38-6.45,14.75-8.54,3.12-1.21,6.54-2,5.32-6.37-.84-3-3.31-3.79-6-2.63-4.63,2-6.2,10.09-11.69,10.24-5.68.15-6.29-8-8.73-11.61-3.72-5.43-11.36-6.74-15.7-1.55-1.31,1.57-8,10.75-3.35,11.75"/><path class="cls-1" d="M30.74,82.05c2.73,2.77-2.53,10.45-3.57,13.08A204,204,0,0,0,52.38,91.4c2.84-.58,1.79,2.87.73,4-1.31,1.41-3.94,1.83-5.69,2.34a152.68,152.68,0,0,1-19.7,3.72c3,3.73,10.33,9.56,8,15.17-4.24-3.65-7.28-8.51-12-11.66-1.35,2-4.16,9.14-7.23,8.71-4.84-.69.06-9,1.07-11-3.25,0-15.48,2.86-17.19-1.15s10.06-4,12.24-4.93l-.41-.49-.41-.5c-1.63-2-3.19-3.9-3.41-6.6,3.64,1.26,6.08,7,10.09,7.06,3.8.07,5.5-5.64,6.85-8.34C26.1,86.18,28.72,80,30.74,82.05Z"/><path class="cls-1" d="M258.67,384.64c1.55,3.06-.36,6.94-1.4,9.84,8.06,1.94,16.09,3.84,24.22,5.48,6.12,1.24,4,4.92-1.33,4.66-7.39-.35-14.27-3.48-21.62-3.89-7-.38-7.83,5.73-13.81,6.91.21-3.37,2.93-5.7,4.88-8.23-3.22-1.65-6.51-3.19-9.64-5-1.62-.94-6.1-4.9-4.37-7s6.3,1.86,7.92,2.74c2.31,1.24,6.91,4,9.63,3.2C256.86,392.25,256.09,386.91,258.67,384.64Z"/><path class="cls-1" d="M223.35,140.26c.68-2.61,5.34-4.42,7.34-5.44,7.62-3.88,14.93-8.4,22.25-12.85,14.76-9,29.23-18.61,42.1-30.27,2.4-2.18,1.66,1.34,1.17,2.65-1.11,2.93-4.09,5.39-6.27,7.45-5.92,5.58-12.46,9.92-19.34,14.17-13.76,8.51-27.68,17.41-42,24.86C226.91,141.69,222.43,143.78,223.35,140.26Z"/><path class="cls-1" d="M232.53,147.91c4.88-6,13.81-8.26,20.69-11.12,10.13-4.22,20.07-9.07,30.06-13.63,6.3-2.87,3.3,1.86.26,4-5.22,3.64-11.42,6.18-17.24,8.71-6.31,2.73-12.85,5-19.1,7.84C242.88,145.66,237.57,149.73,232.53,147.91Z"/><path class="cls-1" d="M94.79,170.28c.65-1,2.91-1.95,3.94-2.61,1.42-.91,2.81-1.84,4.18-2.83,2.47-1.78,4.2-.61,6.4,1.1a13.77,13.77,0,0,1,5.38,12.43c0,1.47.41,3.92-.72,5.13s-3.33,1-4.75,1.33c-1.87.38-4.69,2.74-6.63,2-1.69-.61-1.09-3.63-1.23-5A13.55,13.55,0,0,0,98.74,175a14.41,14.41,0,0,0-2.76-2.7c-.8-.6-1.83-1-1.19-2m-7.44,7.55a24.78,24.78,0,0,1,4.74,1.62,10.81,10.81,0,0,1,3.09,1.5c1.33,1.18.79,3.05,1.1,4.6.18.9.65,1.68.31,2.62-.39,1.1-1.54,1.29-2.12,2.18-.86,1.31.25,3.16,1,4.27,1.28,1.94,3,.95,5,.66a39.76,39.76,0,0,0,7.11-1.23c1.86-.64,3.41-2.11,4.83-.15.53.73.64,1.38,1.69,1.11.87-.23,1.75-1.41,2.35-2,3.71-3.76,4.6-8.9,4.66-14,.18-5.64-1.87-10.93-4.77-15.69a11.88,11.88,0,0,0-2.13-2.94c-.89-.75-2-1-2.85-1.93-1.19-1.32-.92-4-2.83-4.57s-4.9,1.82-6.42,2.87c-2.14,1.46-4.24,3-6.3,4.57-4.42,3.37-9.36,6.6-13.36,10.46A3.83,3.83,0,0,0,81.9,177c1.36,1.57,3.68.55,5.45.86"/></svg>