<svg xmlns="http://www.w3.org/2000/svg" width="276.668" height="37.974" viewBox="0 0 276.668 37.974">
  <g id="Group_301" data-name="Group 301" transform="translate(-970.36 -658)">
    <g id="Payment_Icons-01" data-name="Payment Icons-01" transform="translate(970.36 658)">
      <g id="Group_296" data-name="Group 296">
        <path id="XMLID_2_" d="M48.926,37.974H5a5,5,0,0,1-5-5V5A5,5,0,0,1,5,0H48.943a5,5,0,0,1,5,5V32.974A5.028,5.028,0,0,1,48.926,37.974Z" fill="#253b80"/>
      </g>
      <g id="XMLID_1_" transform="translate(8.074 13.945)">
        <path id="XMLID_57_" d="M53.157,86.242c-.167,1.053-.97,1.053-1.739,1.053h-.451l.318-1.973a.234.234,0,0,1,.234-.2h.2c.535,0,1.037,0,1.288.3A.915.915,0,0,1,53.157,86.242ZM52.822,83.5H49.879a.412.412,0,0,0-.4.351l-1.187,7.541a.243.243,0,0,0,.234.284h1.4a.412.412,0,0,0,.4-.351l.318-2.04a.412.412,0,0,1,.4-.351h.936a3.011,3.011,0,0,0,3.344-2.792,2.265,2.265,0,0,0-.368-1.889A2.681,2.681,0,0,0,52.822,83.5Z" transform="translate(-48.289 -83.483)" fill="#fff"/>
        <path id="XMLID_54_" d="M92.836,101.776a1.56,1.56,0,0,1-1.589,1.338,1.161,1.161,0,0,1-.936-.385,1.224,1.224,0,0,1-.217-.987,1.57,1.57,0,0,1,1.572-1.354,1.185,1.185,0,0,1,.936.385A1.221,1.221,0,0,1,92.836,101.776Zm1.956-2.742h-1.4a.234.234,0,0,0-.234.2l-.067.4-.1-.15a2.017,2.017,0,0,0-1.655-.585,3.238,3.238,0,0,0-3.144,2.826,2.65,2.65,0,0,0,.518,2.157,2.216,2.216,0,0,0,1.772.719,2.664,2.664,0,0,0,1.94-.8l-.067.385a.243.243,0,0,0,.234.284h1.271a.412.412,0,0,0,.4-.351L95.01,99.3A.21.21,0,0,0,94.793,99.034Z" transform="translate(-81.481 -96.308)" fill="#fff"/>
        <path id="XMLID_33_" d="M140.1,99.7h-1.421a.386.386,0,0,0-.334.184l-1.956,2.876L135.565,100a.412.412,0,0,0-.385-.284h-1.4a.246.246,0,0,0-.234.318L135.1,104.6l-1.471,2.073a.242.242,0,0,0,.2.385h1.4a.412.412,0,0,0,.334-.167l4.732-6.805A.252.252,0,0,0,140.1,99.7Z" transform="translate(-119.277 -96.974)" fill="#fff"/>
        <path id="XMLID_38_" d="M178.474,86.242c-.167,1.053-.97,1.053-1.739,1.053H176.3l.318-1.973a.234.234,0,0,1,.234-.2h.2c.535,0,1.037,0,1.288.3A1.109,1.109,0,0,1,178.474,86.242Zm-.351-2.742h-2.943a.412.412,0,0,0-.4.351l-1.187,7.541a.243.243,0,0,0,.234.284h1.5a.288.288,0,0,0,.284-.234l.334-2.14a.412.412,0,0,1,.4-.351h.936a3.011,3.011,0,0,0,3.344-2.792,2.265,2.265,0,0,0-.368-1.889A2.608,2.608,0,0,0,178.122,83.5Z" transform="translate(-152.638 -83.483)" fill="#fff"/>
        <path id="XMLID_21_" d="M218.22,101.776a1.56,1.56,0,0,1-1.589,1.338,1.161,1.161,0,0,1-.936-.385,1.224,1.224,0,0,1-.217-.987,1.57,1.57,0,0,1,1.572-1.354,1.185,1.185,0,0,1,.936.385A1.221,1.221,0,0,1,218.22,101.776Zm1.973-2.742h-1.4a.234.234,0,0,0-.234.2l-.067.4-.1-.15a2.017,2.017,0,0,0-1.655-.585,3.238,3.238,0,0,0-3.144,2.826,2.65,2.65,0,0,0,.518,2.157,2.216,2.216,0,0,0,1.772.719,2.664,2.664,0,0,0,1.94-.8l-.067.385a.243.243,0,0,0,.234.284h1.271a.412.412,0,0,0,.4-.351l.769-4.816A.228.228,0,0,0,220.193,99.034Z" transform="translate(-185.913 -96.308)" fill="#fff"/>
        <path id="XMLID_28_" d="M257.195,83.617l-1.2,7.675a.243.243,0,0,0,.234.284h1.221a.412.412,0,0,0,.4-.351l1.187-7.541a.243.243,0,0,0-.234-.284h-1.354A.269.269,0,0,0,257.195,83.617Z" transform="translate(-221.259 -83.4)" fill="#fff"/>
      </g>
    </g>
    <g id="Payment_Icons-02" data-name="Payment Icons-02" transform="translate(1026.041 658)">
      <path id="XMLID_4_" d="M48.926,37.974H5a5,5,0,0,1-5-5V5A5,5,0,0,1,5,0H48.943a5,5,0,0,1,5,5V32.974A5.028,5.028,0,0,1,48.926,37.974Z" fill="#0066b2"/>
      <g id="XMLID_7_" transform="translate(9.748 13.945)">
        <g id="XMLID_9_">
          <path id="XMLID_19_" d="M133.609,95.385H130.8L132.556,84.6h2.809Z" transform="translate(-118.677 -84.399)" fill="#fff"/>
          <path id="XMLID_18_" d="M68.048,84.6l-2.675,7.424-.318-1.605h0L64.1,85.57a1.207,1.207,0,0,0-1.338-.97H58.35l-.05.184a10.6,10.6,0,0,1,2.943,1.237L63.684,95.4H66.61l4.465-10.785H68.048Z" transform="translate(-58.3 -84.399)" fill="#fff"/>
          <path id="XMLID_11_" d="M211.824,95.385H214.4L212.159,84.6H209.9a1.314,1.314,0,0,0-1.3.8l-4.2,9.982h2.926l.585-1.605h3.578Zm-3.093-3.812,1.471-4.03.836,4.03Z" transform="translate(-179.97 -84.399)" fill="#fff"/>
          <path id="XMLID_10_" d="M165.893,86.192l.4-2.324a8.141,8.141,0,0,0-2.525-.468c-1.388,0-4.7.6-4.7,3.578,0,2.792,3.879,2.826,3.879,4.281s-3.478,1.2-4.632.284l-.418,2.425a7.965,7.965,0,0,0,3.177.6c1.923,0,4.816-.987,4.816-3.7,0-2.809-3.913-3.06-3.913-4.281C161.963,85.373,164.705,85.54,165.893,86.192Z" transform="translate(-141.246 -83.4)" fill="#fff"/>
        </g>
        <path id="XMLID_8_" d="M65.055,90.419,64.1,85.57a1.207,1.207,0,0,0-1.338-.97H58.35l-.05.184a10.784,10.784,0,0,1,4.164,2.09A8.451,8.451,0,0,1,65.055,90.419Z" transform="translate(-58.3 -84.399)" fill="#f9a533"/>
      </g>
    </g>
    <g id="Payment_Icons-03" data-name="Payment Icons-03" transform="translate(1081.722 658)">
      <path id="XMLID_5_" d="M48.926,37.974H5a5,5,0,0,1-5-5V5A5,5,0,0,1,5,0H48.943a5,5,0,0,1,5,5V32.974A5.028,5.028,0,0,1,48.926,37.974Z" fill="#36495d"/>
      <g id="XMLID_3_" transform="translate(10.217 8.645)">
        <rect id="XMLID_41_" width="9.063" height="16.286" transform="translate(12.223 2.207)" fill="#f16522"/>
        <path id="XMLID_40_" d="M73.892,62.05a10.354,10.354,0,0,1,3.963-8.143,10.35,10.35,0,1,0,0,16.286,10.379,10.379,0,0,1-3.963-8.143" transform="translate(-61.1 -51.7)" fill="#e41b24"/>
        <path id="XMLID_20_" d="M177.955,62.05A10.362,10.362,0,0,1,161.2,70.193a10.375,10.375,0,0,0,0-16.286,10.362,10.362,0,0,1,16.755,8.143m-.987,6.4V68.12h.134v-.067h-.334v.067h.134v.334Zm.669,0v-.4h-.1l-.117.284-.117-.284h-.1v.4h.067v-.3l.117.268h.084l.117-.268v.3Z" transform="translate(-144.462 -51.7)" fill="#f89e1c"/>
      </g>
    </g>
    <g id="Payment_Icons-04" data-name="Payment Icons-04" transform="translate(1137.404 658)">
      <path id="XMLID_00000000934944352163339040000001109547445919971217_" d="M48.926,37.974H5a5,5,0,0,1-5-5V5A5,5,0,0,1,5,0H48.943a5,5,0,0,1,5,5V32.974A5.028,5.028,0,0,1,48.926,37.974Z" fill="#fff"/>
      <path id="Path_179" data-name="Path 179" d="M56.508,69.673a2.314,2.314,0,0,1-1.839.869,2.63,2.63,0,0,1,.652-1.906,2.668,2.668,0,0,1,1.823-.936,2.685,2.685,0,0,1-.635,1.973m.635,1.02c-1.02-.067-1.889.569-2.358.569-.485,0-1.221-.552-2.023-.535a3.007,3.007,0,0,0-2.542,1.538c-1.087,1.889-.284,4.665.769,6.2.518.752,1.137,1.589,1.956,1.555.769-.033,1.087-.5,2.007-.5.936,0,1.2.5,2.023.485.853-.017,1.371-.752,1.889-1.522a7.173,7.173,0,0,0,.853-1.739A2.723,2.723,0,0,1,59.4,71.9a2.814,2.814,0,0,0-2.257-1.2M63,68.569V79.94h1.772v-3.9H67.21a3.613,3.613,0,0,0,3.8-3.746,3.568,3.568,0,0,0-3.746-3.729Zm1.772,1.488h2.04a2.262,2.262,0,1,1,0,4.515H64.785Zm9.464,9.966a2.945,2.945,0,0,0,2.609-1.455h.033V79.94h1.639V74.271c0-1.639-1.321-2.692-3.327-2.692-1.873,0-3.261,1.07-3.311,2.542h1.589a1.55,1.55,0,0,1,1.672-1.154c1.087,0,1.689.5,1.689,1.438v.635l-2.207.134c-2.057.117-3.16.97-3.16,2.425A2.477,2.477,0,0,0,74.233,80.023Zm.468-1.338c-.936,0-1.538-.451-1.538-1.137,0-.719.569-1.137,1.672-1.2l1.956-.117v.635A1.9,1.9,0,0,1,74.7,78.686Zm5.986,4.347c1.722,0,2.525-.652,3.244-2.642L87.024,71.7H85.235l-2.073,6.722h-.033L81.055,71.7H79.216l2.993,8.277-.167.5a1.4,1.4,0,0,1-1.488,1.187,5.063,5.063,0,0,1-.518-.033V83c.084.017.518.033.652.033Z" transform="translate(-41.392 -56.38)"/>
    </g>
    <g id="Payment_Icons-05" data-name="Payment Icons-05" transform="translate(1193.085 658)">
      <path id="XMLID_6_" d="M48.926,37.974H5a5,5,0,0,1-5-5V5A5,5,0,0,1,5,0H48.943a5,5,0,0,1,5,5V32.974A5.028,5.028,0,0,1,48.926,37.974Z" fill="#fff"/>
      <g id="Group_297" data-name="Group 297" transform="translate(7.37 11.203)">
        <path id="Path_180" data-name="Path 180" d="M147.655,79.1v4.565H146.2V72.4h3.846a3.541,3.541,0,0,1,2.491.97,3.129,3.129,0,0,1,1.037,2.374,3.164,3.164,0,0,1-1.037,2.391,3.486,3.486,0,0,1-2.491.953l-2.391.017Zm0-5.317v3.929h2.425a1.956,1.956,0,0,0,1.438-.585,1.923,1.923,0,0,0,.033-2.709l-.033-.033a1.86,1.86,0,0,0-1.438-.6Z" transform="translate(-129.124 -71.494)" fill="#5f6368"/>
        <path id="Path_181" data-name="Path 181" d="M193.375,92.2a3.578,3.578,0,0,1,2.525.853,2.98,2.98,0,0,1,.92,2.358v4.749h-1.388v-1.07h-.067a2.765,2.765,0,0,1-2.391,1.321,3.083,3.083,0,0,1-2.124-.752A2.4,2.4,0,0,1,190,97.768a2.286,2.286,0,0,1,.9-1.906,3.817,3.817,0,0,1,2.408-.7,4.249,4.249,0,0,1,2.124.468v-.334a1.659,1.659,0,0,0-.6-1.288,2.075,2.075,0,0,0-1.4-.535,2.214,2.214,0,0,0-1.923,1.02l-1.271-.8A3.68,3.68,0,0,1,193.375,92.2ZM191.5,97.8a1.165,1.165,0,0,0,.485.936,1.819,1.819,0,0,0,1.12.385,2.3,2.3,0,0,0,1.622-.669,2.1,2.1,0,0,0,.719-1.589,2.921,2.921,0,0,0-1.889-.535,2.465,2.465,0,0,0-1.471.418A1.28,1.28,0,0,0,191.5,97.8Z" transform="translate(-165.597 -87.986)" fill="#5f6368"/>
        <path id="Path_182" data-name="Path 182" d="M240.008,93.7l-4.832,11.1h-1.488l1.789-3.879L232.3,93.7h1.572l2.291,5.535h.033l2.241-5.535Z" transform="translate(-200.827 -89.235)" fill="#5f6368"/>
        <path id="Path_183" data-name="Path 183" d="M89,100.021a7.054,7.054,0,0,0-.117-1.321H82.8v2.491h3.495a3.073,3.073,0,0,1-1.288,1.973v1.622H87.1A6.376,6.376,0,0,0,89,100.021Z" transform="translate(-76.325 -93.399)" fill="#4285f4"/>
        <path id="Path_184" data-name="Path 184" d="M53.986,118.334a6.26,6.26,0,0,0,4.3-1.555l-2.09-1.622a3.923,3.923,0,0,1-5.836-2.057H48.2v1.672A6.457,6.457,0,0,0,53.986,118.334Z" transform="translate(-47.51 -105.391)" fill="#34a853"/>
        <path id="Path_185" data-name="Path 185" d="M46.905,92.447a3.915,3.915,0,0,1,0-2.475V88.3h-2.14a6.481,6.481,0,0,0,0,5.819Z" transform="translate(-44.075 -84.738)" fill="#fbbc04"/>
        <path id="Path_186" data-name="Path 186" d="M53.9,69.557a3.474,3.474,0,0,1,2.475.97h0l1.839-1.839A6.219,6.219,0,0,0,53.886,67,6.507,6.507,0,0,0,48.1,70.56l2.157,1.672A3.911,3.911,0,0,1,53.9,69.557Z" transform="translate(-47.427 -66.998)" fill="#ea4335"/>
      </g>
    </g>
  </g>
</svg>