<svg id="圖層_1" data-name="圖層 1" xmlns="http://www.w3.org/2000/svg" viewBox="0 0 300 650"><defs><style>.cls-1{fill-rule:evenodd;}</style></defs><path class="cls-1" d="M126.61,177.83c-13.29,2.67-25.41,8.66-27.54,23.6-1.94,13.57,7.31,26.13,18.66,32.49,12.28,6.87,27.67,8,39.91.39,12.88-8,15.8-24.09,8-36.7-8.75-14.07-23.4-18.22-39-19.78m8.55-6.51C151,173.64,165.67,184.9,171,200.07c5.5,15.64.45,32.83-14.1,41.4-29.41,17.32-68.71-11.54-61.61-44.71,1.8-8.43,6.92-14.95,13.87-19.88,7.68-5.44,17-5.59,26-5.56"/><path class="cls-1" d="M50.35,284.28c7.51-.78,15-1.9,22.49-2.64,7.1-.71,13.38-1.45,19.87-4.71q-13.29-4-26.68-7.61c-4.43-1.2-8.86-2.47-13.31-3.59-3.44-.86-6.44-1.36-7.77-5.12-1.54-4.38,2.75-3.71,5.42-2.6,3.68,1.53,7.69,2.49,11.51,3.76,8.52,2.85,17.1,5.46,25.7,8.05,2.67.8,18.17,3.78,12.59,8.95-2.39,2.21-7.72,3.42-10.65,5-3.74,2-7.82,2.85-12,3.66-8.69,1.69-17.7,2.34-26.5,3.81L37.56,293.5c-2.63.43-3.64.39-4.33-2.54-.5-2.13.15-4.27.63-6.33,1.22-5.25,2.58-10.47,3.92-15.69.51-2,1.41-10.73,3.19-11.69,4-2.17.92,9.94.62,11.42-1.13,5.6-2.47,11.15-3.08,16.83,4-.36,7.9-.73,11.84-1.22"/><path class="cls-1" d="M148.36,342.61c1,3.91-1.57,4.42-4.71,5.32-4.08,1.17-8.1,2.44-12.23,3.43-8.68,2.09-17.39,3.94-25.94,6.55-16.3,5-32.77,9.65-48.9,15.14-4,1.37-8,2.73-12,4s-9.08,3.87-13.43,4.38c-3.78.45-3.83-2.22-1.35-4.34,3.21-2.74,7.84-4.5,11.64-6.2,15.63-7,32.38-12.19,49-16.26,19.2-4.69,38.41-9.1,58-12"/><path class="cls-1" d="M211,135.64c-.28.71-.56,1.42-.83,2.13.08,0,9.13-11.5,10.52-12.84,4.71-4.53,10.38-8,15.88-11.46,11.64-7.39,24.64-12.68,36.11-20.27,3.78-2.5,10.39-6.12,10.12-11.6s-11-6.4-15-5.58c-6.13,1.29-11.68,5.36-16.73,8.87-5.51,3.83-11.05,7.6-16,12.18-5.31,4.94-10.49,10.39-14.34,16.57-4.31,6.91-6.91,14.42-9.8,22m-2.16,23.3c-4.76.53.7,2.54-1.52,4.61-2.43,2.26-4.14-6.47-4.33-8.09-1.15-9.59,2.22-20.35,5.52-29.24,1.67-4.49,3.07-9.1,5-13.49s5-8.09,7.82-11.76a99.68,99.68,0,0,1,20.23-19.33c7.57-5.46,15.85-10.79,25-13.31,7.51-2.08,18,2.33,19.77,10.33,1.85,8.18-4.15,15.57-10.41,19.89a234.61,234.61,0,0,1-25.78,15.6c-4.54,2.32-8.56,5.41-13,7.88a56,56,0,0,0-12.79,9.24c-3.74,3.72-7.57,7.41-10.39,11.91-3.09,4.91-4,10.14-5.05,15.76"/><path class="cls-1" d="M177.18,119.72c2.32-9.75,6.39-19,8.39-28.85-16.56,7.89-15.28,27.84-11.35,42.72Zm5.87,1.1a130.85,130.85,0,0,1-4.17,14c-1.9,4.77-.33,8,1.63,12.44-3.29,1.86-7.4-5.86-8.5-8.11-2.27-4.62-3.34-10.2-4.28-15.23-2-10.72-2.32-21.68,4.4-30.88,2.49-3.41,5.69-8.1,10-9.25,4.75-1.27,6.86,3.06,7.51,7.08,1.61,9.8-4.83,20.39-6.6,29.91Z"/><path class="cls-1" d="M219.32,640.32c7.2.57,14.28,1.13,21.47,1.59l-3.72-29.58-12.49,2.89c-2,.46-5,.58-6.72,1.56l-2,.45c0,1.28,0,2.56,0,3.84-.05,3.79-.16,7.57-.31,11.35-.07,1.59-.62,3.91-.24,5.48-.68,1.58-.25,2.26,1.29,2l2.72.4m-4.95,7.13c-5.63-2.81-4.09-11.38-4.08-16.84,0-3.48.25-6.93.34-10.39.06-2.39-.48-5.34.34-7.64,1.46-4.1,8.6-4,12.27-3.7a53.44,53.44,0,0,0,7.79-.1c1.37-.09,2.91.17,4.26-.24a23.84,23.84,0,0,0,2.92-2c4.93.19,5,12,5.31,15q1.18,11.09,2.15,22.21c.17,2,.9,4.18-1,5.3-1.68,1-6.13,0-8,0-7.49-.23-14.94-1.39-22.35-1.56"/><path class="cls-1" d="M27.32,351.28c-1-3.71,14.84-6,17.83-6.82,7.29-2,14.93-2.8,22.38-4.09s14.65-2.7,21.91-4.32c2.24-.5,18.64-6,19.31-4.82,2.2,4-31.66,11.22-35,11.95-15.34,3.38-31,5.48-46.47,8.1"/><path id="react-path-228" class="cls-1" d="M234.16,515.24l1.68-3.94c.69,2.29.88,3.43-1.68,3.94m.74,6.07c-1.21.22-.73-3.58-.73-4.25,2.09,1.19.36,2.61.73,4.25m-1.89-11,3.1-1.83c-1.44,2.66-.87,1-.28,2.78a2.56,2.56,0,0,1-2.82-1m-6.13,20.85c-3.87,14.06-16.18,25.15-29.19,30.9-7.47,3.3-14.81,4.12-22.88,3.76-3.12-.15-6.78-1.16-9.77-1-2.31.15-2.2.25-4.11,2.2-.85-1.56-.24-2.65-1.93-3.56-2.12-1.13-3,.19-4,1.76a11,11,0,0,0-3.72-3c.06,0-1.7,0-1.63,0-.32-.1-2.23-1.33-2.83-1.56-2.46-.92-5.3-1.3-7.57-2.62-2-1.15-3.62-4.4-5.89-1.91,0-4.16-5.61-5.89-8.24-8.07a35.68,35.68,0,0,1-9.42-13.33c-2.18-5.21-2.91-10.2-3.93-15.56-.72-3.75-5.39-9.17-2.58-13,.66,1.59.35,3.21,1.46,4.65a24.48,24.48,0,0,0,2-6.19c.23-1,1.51-4.07,1.37-5-.3-1.84-2.58-1.94-1.32-4.2,2.62,2.85,4.74-2.16,2.76-4.15a9.66,9.66,0,0,0-1.79,3.72c-2.58-5.2,4.56-3.53,3-8.23,2.6-.5,4.1-1.15,5.09-3.73,1.1-2.86.29-3.48,2.79-5.38.86-.65,3.29-1.58,3.74-2.65.86-2.07-1.33-2.68.59-4.62.64,1.14,3.17,3.39,4.55,1.25.28-.43-.88-.73,0-1.72,1.26-1.45,2.66-2.88,4.78-2.57-1.68-4.2,9-4.53,11.79-5.52a29,29,0,0,1,8-1.87c2.92-.23,3.06-1.09,5.53-2.84.21,2.51.81,2,2.6,2.4.43-.74.87-.82,1.32-.25a2.11,2.11,0,0,0,1.64.6c1,.06,2.09-.07,3.12-.05,2.41.05,4.9-.16,7.26-.1a5,5,0,0,0,1.71-.64c.23.42.45.84.67,1.26,1.26.16,1.35,1.73,2.89,0,.46,2.18,1.77,1.05,3.15,1.64s1.47,1.4,2.63,2a2.11,2.11,0,0,0,2.47.25c.83.61,1.68,1.22,2.54,1.8a52.23,52.23,0,0,0,5.12,2.15c1.11.46,2.22.93,3.31,1.43,0,1.32.63,1.79,1.78,1.4a7.88,7.88,0,0,1,2.35,2.32,63,63,0,0,0,7.2,9c12.56,13.06,16.42,31.53,11.67,48.76m3.86-55.53c-5.67-7.6-13.7-16.29-20.91-21.09-3.66-2.43-8.79-6.8-13.26-8.08-1.06-.31-2.16-.33-3.2-.65-.81-.25-1.24-1.07-2.16-1.22-.64-.1-.71,1.33-1.4,1.2-1.42-.28-2.33-1.69-3.33-2.58-2.17,3.73-3.34-2.54-6.52,1.68-3.78-5.93-12.66-4.64-18.69-4.34-1.79.09-2.63.73-4.22,1.2a7.58,7.58,0,0,1-3.24.31,24.68,24.68,0,0,0-11.29,2.24c-6.24,3-12,7.58-17.89,11.15A74.23,74.23,0,0,0,107,470.39c-18.31,21.11-23.21,51.91-8.61,76.38,23.2,38.86,83,43,116.93,16.65,26.2-20.37,36.16-60,15.45-87.76"/><path id="react-path-230" class="cls-1" d="M280.16,565.58c-5.35-1.92-14.3-1.51-15.63,5.41a9.39,9.39,0,0,0,2.53,8c2.31,2.44,6,2.66,5.81-1.58-.14-2.94-2.94-5.49,2-6.08,3.06-.37,7.58,1.92,7.73,5.3.34,7.61-12.84,8.21-17.69,6.89-9.64-2.61-7-12.71-.4-17.32,1.71-1.19,6.61-3,6.84-5.49.3-3.28-3.76-2.61-5.75-2.18-14.61,3.18-17.8,27.66-2.53,32.27,6.94,2.1,16.7-.06,20.88-6.34,3.92-5.89,4-16.16-3.77-18.93"/><path id="react-path-231" class="cls-1" d="M81.41,418.28l-13.71,6.6c-1.51-3.23-4.06-12.06-7.89-13.19-6.2-1.82-2.25,7.8-1.18,10,.88,1.81,2.92,4.61,2.42,6.76-.66,2.9-4.76,3.93-6.9,5.43-5.3,3.7-5.26,11.49,2.42,8.19,4.35-1.87,9.73-7.05,13.06-1.17,1.54,2.71,5.18,17.87,9,8,2.35-6.14-9-12.51-3.4-17.7,1.8-1.67,3.91-1.81,5.71-2.77,4.34-2.32,1.89-6.61.48-10.11"/><path class="cls-1" d="M296.6,17.76C289.3,11.6,277,15.57,270.47,21c-4.21,3.49-4.93,7.78-6.09,12.86-1.05,4.58-2.57,9.83,1.66,13.27,7.73,6.28,21.32.62,27.42-5.55C298.91,36.07,303.79,23.83,296.6,17.76Zm-16.28,28c-6.48,1.42-16.33.73-14.14-8.75C267.85,29.79,275,22.78,282,21.29c5.45-1.16,15.93-.77,15.57,7.33C297.14,38,288.48,44,280.32,45.77Z"/><path class="cls-1" d="M76.5,117.22A56.4,56.4,0,0,1,93.17,128c4,3.83,2.77,8.06-2.47,4.21C66.24,114.27,30.9,113.37,2,117.38c-3.19.45-2.4-2-1.07-3.66,1.83-2.33,4.79-3.24,7.58-3.86,8.36-1.89,17.5-1.93,26-1.53C48.69,109,63.42,111.51,76.5,117.22Z"/><path class="cls-1" d="M84.36,101.55c3.24,1.75,6.66,5,8.08,8.44,1.66,4-.72,5.33-3.67,2.49-3.3-3.16-6.27-6.23-10.38-8.46-2.17-1.17-1.73-2.6.23-3.49S82.78,100.69,84.36,101.55Z"/></svg>